<svg width="10" height="12" viewBox="0 0 10 12" fill="none" xmlns="http://www.w3.org/2000/svg">
<path fill-rule="evenodd" clip-rule="evenodd" d="M4.86526 0.0162859C4.95372 -0.00542864 5.04628 -0.00542864 5.13474 0.0162859L9.57919 1.1072C9.8265 1.1679 10 1.38607 10 1.63636V6.54545C10 6.5755 9.99747 6.60549 9.99244 6.63513C9.67743 8.49083 8.13591 10.5249 5.24845 11.9424C5.08674 12.0218 4.8958 12.019 4.73661 11.9348C1.70324 10.3311 0.33416 7.82148 0.0195757 6.68897C0.0065832 6.6422 0 6.59394 0 6.54545V1.63636C0 1.38607 0.173499 1.1679 0.420814 1.1072L4.86526 0.0162859ZM1.11111 2.06224V6.46866C1.383 7.35095 2.511 9.42072 5.01037 10.8358C7.47406 9.55331 8.63947 7.86176 8.88889 6.49864V2.06224L5 1.1077L1.11111 2.06224Z" fill="white"/>
</svg>
