<svg width="9" height="11" viewBox="0 0 9 11" fill="none" xmlns="http://www.w3.org/2000/svg">
<path fill-rule="evenodd" clip-rule="evenodd" d="M2.64706 2.75C2.64706 1.83873 3.35814 1.1 4.23529 1.1C5.11245 1.1 5.82353 1.83873 5.82353 2.75C5.82353 3.66127 5.11245 4.4 4.23529 4.4C3.35814 4.4 2.64706 3.66127 2.64706 2.75ZM4.23529 0C2.77336 0 1.58824 1.23122 1.58824 2.75C1.58824 4.26878 2.77336 5.5 4.23529 5.5C5.69722 5.5 6.88235 4.26878 6.88235 2.75C6.88235 1.23122 5.69722 0 4.23529 0ZM2.11765 7.7C1.53288 7.7 1.05882 8.19249 1.05882 8.8V11H0V8.8C0 7.58497 0.948103 6.6 2.11765 6.6H6.88235C8.0519 6.6 9 7.58497 9 8.8V11H7.94118V8.8C7.94118 8.19249 7.46713 7.7 6.88235 7.7H2.11765Z" fill="white"/>
</svg>
