<svg width="12" height="10" viewBox="0 0 12 10" fill="none" xmlns="http://www.w3.org/2000/svg">
<path fill-rule="evenodd" clip-rule="evenodd" d="M4.5 1C3.67157 1 3 1.67157 3 2.5C3 3.32843 3.67157 4 4.5 4C5.32843 4 6 3.32843 6 2.5C6 1.67157 5.32843 1 4.5 1ZM2 2.5C2 1.11929 3.11929 0 4.5 0C5.88071 0 7 1.11929 7 2.5C7 3.88071 5.88071 5 4.5 5C3.11929 5 2 3.88071 2 2.5ZM1 8C1 7.44772 1.44772 7 2 7H7C7.55228 7 8 7.44772 8 8V10H9V8C9 6.89543 8.10457 6 7 6H2C0.895431 6 0 6.89543 0 8V10H1V8ZM9.5 6V7C10.25 7 11 7.44772 11 8V10H12V8C12 6.89543 11 6 9.5 6ZM10 2.5C10 3.88071 8.88071 5 7.5 5V4C8.32843 4 9 3.32843 9 2.5C9 1.67157 8.32843 1 7.5 1V0C8.88071 0 10 1.11929 10 2.5Z" fill="white"/>
</svg>
