<svg width="11" height="12" viewBox="0 0 11 12" fill="none" xmlns="http://www.w3.org/2000/svg">
<path fill-rule="evenodd" clip-rule="evenodd" d="M3.85 0H2.75V1.09091H0.55C0.246265 1.09091 0 1.33512 0 1.63636V4.36364V5.45455V11.4545C0 11.7558 0.246265 12 0.55 12H10.45C10.7537 12 11 11.7558 11 11.4545V5.45455V4.36364V1.63636C11 1.33512 10.7537 1.09091 10.45 1.09091H8.25V0H7.15V1.09091H3.85V0ZM9.9 4.36364V2.18182H8.25V3.27273H7.15V2.18182H3.85V3.27273H2.75V2.18182H1.1V4.36364H9.9ZM1.1 5.45455V10.9091H9.9V5.45455H1.1Z" fill="white"/>
</svg>
