<svg width="13" height="11" viewBox="0 0 13 11" fill="none" xmlns="http://www.w3.org/2000/svg">
<path fill-rule="evenodd" clip-rule="evenodd" d="M4.33333 1.1C3.43587 1.1 2.70833 1.83873 2.70833 2.75C2.70833 3.66127 3.43587 4.4 4.33333 4.4C5.2308 4.4 5.95833 3.66127 5.95833 2.75C5.95833 1.83873 5.2308 1.1 4.33333 1.1ZM1.625 2.75C1.625 1.23122 2.83756 0 4.33333 0C5.8291 0 7.04167 1.23122 7.04167 2.75C7.04167 4.26878 5.8291 5.5 4.33333 5.5C2.83756 5.5 1.625 4.26878 1.625 2.75ZM1.08333 8.8C1.08333 8.19249 1.56836 7.7 2.16667 7.7H7.04167C7.63998 7.7 8.125 8.19249 8.125 8.8V11H9.20833V8.8C9.20833 7.58497 8.23828 6.6 7.04167 6.6H2.16667C0.97005 6.6 0 7.58497 0 8.8V11H1.08333V8.8ZM10.2917 5.5H8.66667V4.4H10.2917V2.75H11.375V4.4H13V5.5H11.375V7.15H10.2917V5.5Z" fill="white"/>
</svg>
