<svg width="13" height="11" viewBox="0 0 13 11" fill="none" xmlns="http://www.w3.org/2000/svg">
<path fill-rule="evenodd" clip-rule="evenodd" d="M4.29626 1.1C3.40647 1.1 2.68516 1.83873 2.68516 2.75C2.68516 3.66127 3.40647 4.4 4.29626 4.4C5.18604 4.4 5.90736 3.66127 5.90736 2.75C5.90736 1.83873 5.18604 1.1 4.29626 1.1ZM1.6111 2.75C1.6111 1.23122 2.81329 0 4.29626 0C5.77923 0 6.98142 1.23122 6.98142 2.75C6.98142 4.26878 5.77923 5.5 4.29626 5.5C2.81329 5.5 1.6111 4.26878 1.6111 2.75ZM13 3.96391L10.5834 6.43891L10.2036 6.82782L9.82388 6.43891L8.48129 5.06391L9.24077 4.28609L10.2036 5.27218L12.2405 3.18609L13 3.96391ZM1.07406 8.8C1.07406 8.19249 1.55494 7.7 2.14813 7.7H6.98142C7.57461 7.7 8.05549 8.19249 8.05549 8.8V11H9.12955V8.8C9.12955 7.58497 8.1678 6.6 6.98142 6.6H2.14813C0.96175 6.6 0 7.58497 0 8.8V11H1.07406V8.8Z" fill="white"/>
</svg>
