<svg width="70" height="24" viewBox="0 0 70 24" fill="none" xmlns="http://www.w3.org/2000/svg">
<path d="M1.91417 10.2592L5.82373 6.34967H35.7699V16.9972H5.82373L1.91418 13.0876C1.13313 12.3066 1.13313 11.0403 1.91417 10.2592Z" fill="#CBF2C0"/>
<path fill-rule="evenodd" clip-rule="evenodd" d="M17.5656 2.05182L8.54536 11.6734L17.5656 21.2951L15.377 23.3469L5.39495 12.6994C4.85403 12.1224 4.85403 11.2245 5.39495 10.6475L15.377 0L17.5656 2.05182ZM21.3662 2.05182L30.3865 11.6734L21.3662 21.2951L23.5549 23.3469L33.5369 12.6994C34.0778 12.1224 34.0778 11.2245 33.5369 10.6475L23.5549 0L21.3662 2.05182Z" fill="#5469D4"/>
<path d="M40.2229 6.76999L42.3939 13.322L44.5389 6.76999H46.7879L43.2909 16H41.4969L37.9609 6.76999H40.2229Z" fill="#5469D4"/>
<path d="M49.3656 6.76999H51.2896L54.6566 16H52.4726L51.7576 13.933H48.8846L48.1826 16H45.9986L49.3656 6.76999ZM51.4066 12.464L50.3276 9.20099L49.2226 12.464H51.4066Z" fill="#5469D4"/>
<path d="M54.6898 11.307C54.6898 10.7523 54.7938 10.202 55.0018 9.65599C55.2098 9.10132 55.5131 8.60732 55.9118 8.17399C56.3105 7.74065 56.7958 7.38965 57.3678 7.12099C57.9398 6.85232 58.5898 6.71799 59.3178 6.71799C60.1845 6.71799 60.9341 6.90432 61.5668 7.27699C62.2081 7.64965 62.6848 8.13499 62.9968 8.73299L61.3588 9.87699C61.2548 9.63432 61.1205 9.43499 60.9558 9.27899C60.7998 9.11432 60.6265 8.98432 60.4358 8.88899C60.2451 8.78499 60.0501 8.71565 59.8508 8.68099C59.6515 8.63765 59.4565 8.61599 59.2658 8.61599C58.8585 8.61599 58.5031 8.69832 58.1998 8.86299C57.8965 9.02765 57.6451 9.23999 57.4458 9.49999C57.2465 9.75999 57.0991 10.0547 57.0038 10.384C56.9085 10.7133 56.8608 11.047 56.8608 11.385C56.8608 11.749 56.9171 12.1 57.0298 12.438C57.1425 12.776 57.3028 13.075 57.5108 13.335C57.7275 13.595 57.9831 13.803 58.2778 13.959C58.5811 14.1063 58.9191 14.18 59.2918 14.18C59.4825 14.18 59.6775 14.1583 59.8768 14.115C60.0848 14.063 60.2798 13.9893 60.4618 13.894C60.6525 13.79 60.8258 13.66 60.9818 13.504C61.1378 13.3393 61.2635 13.14 61.3588 12.906L63.1008 13.933C62.9621 14.271 62.7541 14.5743 62.4768 14.843C62.2081 15.1117 61.8961 15.337 61.5408 15.519C61.1855 15.701 60.8085 15.8397 60.4098 15.935C60.0111 16.0303 59.6211 16.078 59.2398 16.078C58.5725 16.078 57.9571 15.9437 57.3938 15.675C56.8391 15.3977 56.3581 15.0337 55.9508 14.583C55.5521 14.1323 55.2401 13.621 55.0148 13.049C54.7981 12.477 54.6898 11.8963 54.6898 11.307Z" fill="#5469D4"/>
<path d="M66.695 16.13C66.1143 16.13 65.5423 16.039 64.979 15.857C64.4157 15.6663 63.939 15.3933 63.549 15.038L64.29 13.764C64.706 14.05 65.109 14.271 65.499 14.427C65.8977 14.583 66.279 14.661 66.643 14.661C66.9117 14.661 67.1197 14.6133 67.267 14.518C67.4143 14.4227 67.488 14.284 67.488 14.102C67.488 13.92 67.3927 13.777 67.202 13.673C67.02 13.5603 66.695 13.4433 66.227 13.322C65.7677 13.192 65.3777 13.0663 65.057 12.945C64.745 12.8237 64.4893 12.6893 64.29 12.542C64.0907 12.3947 63.9477 12.2257 63.861 12.035C63.7743 11.8443 63.731 11.619 63.731 11.359C63.731 11.0123 63.8003 10.696 63.939 10.41C64.0777 10.124 64.2683 9.88132 64.511 9.68199C64.7537 9.48265 65.0397 9.32665 65.369 9.21399C65.707 9.10132 66.071 9.04499 66.461 9.04499C66.9723 9.04499 67.449 9.11432 67.891 9.25299C68.3417 9.39165 68.775 9.64299 69.191 10.007L68.385 11.255C67.995 10.9863 67.6483 10.7913 67.345 10.67C67.0417 10.5487 66.747 10.488 66.461 10.488C66.2357 10.488 66.045 10.5357 65.889 10.631C65.733 10.7177 65.655 10.8607 65.655 11.06C65.655 11.2507 65.7373 11.3937 65.902 11.489C66.0753 11.5843 66.3917 11.6883 66.851 11.801C67.3363 11.931 67.7437 12.061 68.073 12.191C68.411 12.321 68.684 12.4683 68.892 12.633C69.1 12.789 69.2517 12.971 69.347 13.179C69.4423 13.387 69.49 13.634 69.49 13.92C69.49 14.596 69.2387 15.1333 68.736 15.532C68.2333 15.9307 67.553 16.13 66.695 16.13Z" fill="#5469D4"/>
</svg>
