<svg width="7" height="8" viewBox="0 0 7 8" fill="none" xmlns="http://www.w3.org/2000/svg">
<path fill-rule="evenodd" clip-rule="evenodd" d="M3.91791 0.333344H0.313433C0.140328 0.333344 0 0.482581 0 0.666677L0 7.33335C0 7.51745 0.140328 7.66668 0.313433 7.66668H3.91791C4.09102 7.66668 4.23134 7.51745 4.23134 7.33335C4.23134 7.14925 4.09102 7.00002 3.91791 7.00002H0.626866V1.00001H3.91791C4.09102 1.00001 4.23134 0.850772 4.23134 0.666677C4.23134 0.482581 4.09102 0.333344 3.91791 0.333344ZM5.35548 2.11301C5.23308 1.98283 5.03463 1.98283 4.91222 2.11301C4.78982 2.24319 4.78982 2.45424 4.91222 2.58441L5.92987 3.66667H2.40299C2.22988 3.66667 2.08955 3.81591 2.08955 4C2.08955 4.1841 2.22988 4.33333 2.40299 4.33333H5.95071L4.91223 5.43775C4.78982 5.56793 4.78982 5.77898 4.91223 5.90915C5.03463 6.03933 5.23309 6.03933 5.35549 5.90915L6.90368 4.26266C6.95397 4.20919 6.98359 4.14207 6.99256 4.07252C6.99743 4.04917 7 4.0249 7 4C7 3.9066 6.96389 3.82219 6.9057 3.76167L6.90368 3.7595L5.35548 2.11301Z" fill="#8996B0"/>
</svg>
