<svg width="9" height="9" viewBox="0 0 9 9" fill="none" xmlns="http://www.w3.org/2000/svg">
<path fill-rule="evenodd" clip-rule="evenodd" d="M4.5 0.818182C2.46659 0.818182 0.818182 2.46659 0.818182 4.5C0.818182 6.53341 2.46659 8.18182 4.5 8.18182C6.53341 8.18182 8.18182 6.53341 8.18182 4.5C8.18182 2.46659 6.53341 0.818182 4.5 0.818182ZM0 4.5C0 2.01472 2.01472 0 4.5 0C6.98528 0 9 2.01472 9 4.5C9 6.98528 6.98528 9 4.5 9C2.01472 9 0 6.98528 0 4.5ZM4.09091 6.95455V6.13636H4.90909V6.95455H4.09091ZM3.68182 3.68182C3.68182 3.22995 4.04813 2.86364 4.5 2.86364C4.95187 2.86364 5.31818 3.22995 5.31818 3.68182C5.31818 4.09076 5.04202 4.5 4.5 4.5C4.27407 4.5 4.09091 4.68316 4.09091 4.90909C4.09091 5.13503 4.27407 5.31818 4.5 5.31818C5.59434 5.31818 6.13636 4.43516 6.13636 3.68182C6.13636 2.77808 5.40374 2.04545 4.5 2.04545C3.59626 2.04545 2.86364 2.77808 2.86364 3.68182H3.68182Z" fill="#212D63"/>
</svg>
