<svg width="16" height="16" viewBox="0 0 16 16" fill="none" xmlns="http://www.w3.org/2000/svg">
<path fill-rule="evenodd" clip-rule="evenodd" d="M1.5836 6.73031C1.5836 3.88786 3.88786 1.5836 6.73031 1.5836C9.57275 1.5836 11.877 3.88786 11.877 6.73031C11.877 9.57275 9.57275 11.877 6.73031 11.877C3.88786 11.877 1.5836 9.57275 1.5836 6.73031ZM6.73031 0C3.01326 0 0 3.01326 0 6.73031C0 10.4474 3.01326 13.4606 6.73031 13.4606C8.30351 13.4606 9.75064 12.9208 10.8966 12.0164L14.8802 16L16 14.8802L12.0164 10.8966C12.9208 9.75064 13.4606 8.30351 13.4606 6.73031C13.4606 3.01326 10.4474 0 6.73031 0Z" fill="#E5E8EE"/>
</svg>
