<svg width="11" height="11" viewBox="0 0 11 11" fill="none" xmlns="http://www.w3.org/2000/svg">
<path fill-rule="evenodd" clip-rule="evenodd" d="M0.5 0C0.223877 0 0 0.223854 0 0.5V4.5C0 4.77615 0.223877 5 0.5 5H10.5C10.7761 5 11 4.77615 11 4.5V0.5C11 0.223854 10.7761 0 10.5 0H0.5ZM1 4V1H10V4H1ZM0.5 6C0.223877 6 0 6.22385 0 6.5V10.5C0 10.7761 0.223877 11 0.5 11H10.5C10.7761 11 11 10.7761 11 10.5V6.5C11 6.22385 10.7761 6 10.5 6H0.5ZM1 10V7H10V10H1ZM2 2H3V3H2V2ZM3 8H2V9H3V8Z" fill="white"/>
</svg>
