<svg width="13" height="13" viewBox="0 0 13 13" fill="none" xmlns="http://www.w3.org/2000/svg">
<path fill-rule="evenodd" clip-rule="evenodd" d="M0.8125 0.8125V12.1875H12.1875V0.8125H0.8125ZM0.40625 0C0.181884 0 0 0.181884 0 0.40625V12.5938C0 12.8181 0.181884 13 0.40625 13H12.5938C12.8181 13 13 12.8181 13 12.5938V0.40625C13 0.181884 12.8181 0 12.5938 0H0.40625ZM2.84375 2.84375V6.36458H5.28125V2.84375H2.84375ZM2.4375 2.03125C2.21313 2.03125 2.03125 2.21313 2.03125 2.4375V6.77083C2.03125 6.9952 2.21313 7.17708 2.4375 7.17708H5.6875C5.91187 7.17708 6.09375 6.9952 6.09375 6.77083V2.4375C6.09375 2.21313 5.91187 2.03125 5.6875 2.03125H2.4375ZM7.71875 4.60417V2.84375H10.1562V4.60417H7.71875ZM6.90625 2.4375C6.90625 2.21313 7.08813 2.03125 7.3125 2.03125H10.5625C10.7869 2.03125 10.9688 2.21313 10.9688 2.4375V5.01042C10.9688 5.23478 10.7869 5.41667 10.5625 5.41667H7.3125C7.08813 5.41667 6.90625 5.23478 6.90625 5.01042V2.4375ZM7.71875 10.5625H10.1562V7.04167H7.71875V10.5625ZM10.5625 11.375C10.7869 11.375 10.9688 11.1931 10.9688 10.9688V6.63542C10.9688 6.41105 10.7869 6.22917 10.5625 6.22917H7.3125C7.08813 6.22917 6.90625 6.41105 6.90625 6.63542V10.9688C6.90625 11.1931 7.08813 11.375 7.3125 11.375H10.5625ZM5.28125 8.80208V10.5625H2.84375V8.80208H5.28125ZM6.09375 10.9688C6.09375 11.1931 5.91187 11.375 5.6875 11.375H2.4375C2.21313 11.375 2.03125 11.1931 2.03125 10.9688V8.39583C2.03125 8.17147 2.21313 7.98958 2.4375 7.98958H5.6875C5.91187 7.98958 6.09375 8.17147 6.09375 8.39583V10.9688Z" fill="white"/>
</svg>
