<svg width="12" height="13" viewBox="0 0 12 13" fill="none" xmlns="http://www.w3.org/2000/svg">
<path fill-rule="evenodd" clip-rule="evenodd" d="M3 1.77273C3 0.793677 3.80589 0 4.8 0H7.2C8.19411 0 9 0.793677 9 1.77273V2.36364H12V3.54545H10.8V11.2273C10.8 12.2063 9.99411 13 9 13H3C2.00589 13 1.2 12.2063 1.2 11.2273V3.54545H0V2.36364H3V1.77273ZM4.2 2.36364H7.8V1.77273C7.8 1.44638 7.53137 1.18182 7.2 1.18182H4.8C4.46863 1.18182 4.2 1.44638 4.2 1.77273V2.36364ZM2.4 3.54545V11.2273C2.4 11.5536 2.66863 11.8182 3 11.8182H9C9.33137 11.8182 9.6 11.5536 9.6 11.2273V3.54545H2.4ZM4.2 10.0455V5.31818H5.4V10.0455H4.2ZM6.6 10.0455V5.31818H7.8V10.0455H6.6Z" fill="#5469D4"/>
</svg>
