<svg width="8" height="7" viewBox="0 0 8 7" fill="none" xmlns="http://www.w3.org/2000/svg">
<path fill-rule="evenodd" clip-rule="evenodd" d="M2.66667 0.7C2.11438 0.7 1.66667 1.1701 1.66667 1.75C1.66667 2.3299 2.11438 2.8 2.66667 2.8C3.21895 2.8 3.66667 2.3299 3.66667 1.75C3.66667 1.1701 3.21895 0.7 2.66667 0.7ZM1 1.75C1 0.783502 1.74619 0 2.66667 0C3.58714 0 4.33333 0.783502 4.33333 1.75C4.33333 2.7165 3.58714 3.5 2.66667 3.5C1.74619 3.5 1 2.7165 1 1.75ZM0.666667 5.6C0.666667 5.2134 0.965144 4.9 1.33333 4.9H4.33333C4.70152 4.9 5 5.2134 5 5.6V7H5.66667V5.6C5.66667 4.8268 5.06971 4.2 4.33333 4.2H1.33333C0.596954 4.2 0 4.8268 0 5.6V7H0.666667V5.6ZM6.33333 3.5H5.33333V2.8H6.33333V1.75H7V2.8H8V3.5H7V4.55H6.33333V3.5Z" fill="#212D63"/>
</svg>
