<svg width="7" height="8" viewBox="0 0 7 8" fill="none" xmlns="http://www.w3.org/2000/svg">
<path fill-rule="evenodd" clip-rule="evenodd" d="M4.82751 0.463422L5.80502 1.37859H1.05C0.470101 1.37859 3.04449e-07 1.81871 3.04449e-07 2.36163V4.00002H0.7V2.36163C0.7 2.18065 0.856701 2.03395 1.05 2.03395H5.80502L4.82751 2.94912L5.32249 3.41252L6.89749 1.93797C7.03417 1.81001 7.03417 1.60253 6.89749 1.47457L5.32249 1.52588e-05L4.82751 0.463422ZM2.17249 7.53661L1.19498 6.62144L5.95 6.62144C6.5299 6.62144 7 6.18132 7 5.63841L7 4.00002H6.3L6.3 5.63841C6.3 5.81938 6.1433 5.96608 5.95 5.96608L1.19498 5.96608L2.17249 5.05091L1.67751 4.58751L0.102513 6.06206C-0.0341709 6.19002 -0.0341708 6.3975 0.102513 6.52546L1.67751 8.00002L2.17249 7.53661Z" fill="#212D63"/>
</svg>
