<svg width="8" height="7" viewBox="0 0 8 7" fill="none" xmlns="http://www.w3.org/2000/svg">
<path fill-rule="evenodd" clip-rule="evenodd" d="M2.54545 0C2.34462 0 2.18182 0.1567 2.18182 0.35V1.4H0.363636C0.162806 1.4 0 1.5567 0 1.75V6.65C0 6.8433 0.162806 7 0.363636 7H2.54545H5.45455H7.63636C7.83719 7 8 6.8433 8 6.65V1.75C8 1.5567 7.83719 1.4 7.63636 1.4H5.81818V0.35C5.81818 0.1567 5.65538 0 5.45455 0H2.54545ZM5.09091 1.4V0.7H2.90909V1.4H5.09091ZM2.90909 2.1H5.09091V6.3H2.90909V2.1ZM2.18182 2.1H0.727273V6.3H2.18182V2.1ZM5.81818 6.3V2.1H7.27273V6.3H5.81818Z" fill="#212D63"/>
</svg>
