<svg width="9" height="11" viewBox="0 0 9 11" fill="none" xmlns="http://www.w3.org/2000/svg">
<path fill-rule="evenodd" clip-rule="evenodd" d="M4.23529 1.1C3.35814 1.1 2.64706 1.83873 2.64706 2.75C2.64706 3.66127 3.35814 4.4 4.23529 4.4C5.11245 4.4 5.82353 3.66127 5.82353 2.75C5.82353 1.83873 5.11245 1.1 4.23529 1.1ZM1.58824 2.75C1.58824 1.23122 2.77336 0 4.23529 0C5.69722 0 6.88235 1.23122 6.88235 2.75C6.88235 4.26878 5.69722 5.5 4.23529 5.5C2.77336 5.5 1.58824 4.26878 1.58824 2.75ZM1.05882 8.8C1.05882 8.19249 1.53287 7.7 2.11765 7.7H6.88235C7.46712 7.7 7.94118 8.19249 7.94118 8.8V11H9V8.8C9 7.58497 8.0519 6.6 6.88235 6.6H2.11765C0.948103 6.6 0 7.58497 0 8.8V11H1.05882V8.8Z" fill="white"/>
</svg>
