<svg width="10" height="11" viewBox="0 0 10 11" fill="none" xmlns="http://www.w3.org/2000/svg">
<path fill-rule="evenodd" clip-rule="evenodd" d="M4.7311 0.0873464C4.89321 -0.0291155 5.10679 -0.0291155 5.2689 0.0873464L9.79271 3.33735C9.92243 3.43054 10 3.58496 10 3.75V7.25C10 7.41504 9.92243 7.56946 9.79271 7.66265L5.2689 10.9127C5.10679 11.0291 4.89321 11.0291 4.7311 10.9127L0.207293 7.66265C0.0775676 7.56946 0 7.41504 0 7.25V3.75C0 3.58496 0.0775676 3.43054 0.207293 3.33735L4.7311 0.0873464ZM0.952381 6.30206L2.0688 5.5L0.952381 4.69794V6.30206ZM2.91209 6.10583L1.31948 7.25L4.52381 9.55206V7.26373L2.91209 6.10583ZM5.47619 9.55206L8.68052 7.25L7.08791 6.10583L5.47619 7.26373V9.55206ZM6.24463 5.5L5 6.39417L3.75537 5.5L5 4.60583L6.24463 5.5ZM7.9312 5.5L9.04762 6.30206V4.69794L7.9312 5.5ZM7.08791 4.89417L5.47619 3.73627V1.44794L8.68052 3.75L7.08791 4.89417ZM4.52381 3.73627L2.91209 4.89417L1.31948 3.75L4.52381 1.44794V3.73627Z" fill="white"/>
</svg>
